<svg width="24" height="24" viewBox="0 0 24 24" fill="none" xmlns="http://www.w3.org/2000/svg">
<path d="M4.98858 1.87135L11.9619 1.26126C13.6125 1.11685 15.0676 2.33782 15.212 3.98837L15.2553 4.48334L19.0118 4.81199C20.6623 4.95639 21.8833 6.41149 21.7389 8.06204L20.693 20.0164C20.5486 21.6669 19.0935 22.8879 17.4429 22.7435L10.4696 22.1334C9.09717 22.0133 8.02176 20.9871 7.7813 19.6958L6.55739 19.8029C4.90684 19.9473 3.45174 18.7263 3.30734 17.0757L2.26147 5.1214C2.11706 3.47085 3.33803 2.01575 4.98858 1.87135Z" fill="#2A2C30"/>
<path d="M15.2553 4.48334L19.0118 4.81199C20.6623 4.95639 21.8833 6.41149 21.7389 8.06204L20.693 20.0164C20.5486 21.6669 19.0935 22.8879 17.4429 22.7435L10.4696 22.1334C9.09717 22.0133 8.02176 20.9871 7.7813 19.6958M15.2553 4.48334L15.212 3.98837C15.0676 2.33782 13.6125 1.11685 11.9619 1.26126L4.98858 1.87135C3.33803 2.01575 2.11706 3.47085 2.26147 5.1214L3.30734 17.0757C3.45174 18.7263 4.90684 19.9473 6.55739 19.8029L7.7813 19.6958M15.2553 4.48334L16.2579 15.9427C16.4023 17.5933 15.1813 19.0484 13.5308 19.1928L7.7813 19.6958" stroke="url(#paint0_linear_32_208)" stroke-width="1.5"/>
<defs>
<linearGradient id="paint0_linear_32_208" x1="6.31861" y1="6.27644" x2="20.0514" y2="16.3275" gradientUnits="userSpaceOnUse">
<stop stop-color="#787D85"/>
<stop offset="1" stop-color="#555B64"/>
</linearGradient>
</defs>
</svg>
