<svg width="40" height="40" viewBox="0 0 40 40" fill="none" xmlns="http://www.w3.org/2000/svg">
<g id="Friends">
<g id="Vector 274">
<path d="M12.6038 36.6188L27.3288 36.6188C30.0396 36.6188 32.3554 34.3309 31.4845 31.7431C27.844 20.9258 12.0886 20.9259 8.44808 31.7431C7.57717 34.3309 9.89297 36.6188 12.6038 36.6188Z" fill="#2A2C30"/>
<path d="M13.4217 13.5282V11.8789C13.4217 7.32442 17.0843 3.63232 21.6023 3.63232C22.5059 3.63232 23.2384 4.37074 23.2384 5.28163V6.10628C23.2384 6.56173 23.6046 6.93094 24.0564 6.93094C25.4118 6.93094 26.5106 8.03857 26.5106 9.40489V11.8789V13.5282C26.5106 17.1717 23.5805 20.1254 19.9661 20.1254C16.3517 20.1254 13.4217 17.1717 13.4217 13.5282Z" fill="#2A2C30"/>
<path d="M13.4217 11.8789V13.5282C13.4217 17.1717 16.3517 20.1254 19.9661 20.1254C23.5805 20.1254 26.5106 17.1717 26.5106 13.5282V11.8789M13.4217 11.8789L16.0878 10.5351C16.4759 10.3394 16.9242 10.3117 17.3411 10.4331C19.241 10.9864 20.6913 10.9864 22.5912 10.4331C23.0081 10.3117 23.4564 10.3394 23.8445 10.5351L26.5106 11.8789M13.4217 11.8789C13.4217 7.32442 17.0843 3.63232 21.6023 3.63232C22.5059 3.63232 23.2384 4.37074 23.2384 5.28163V6.10628C23.2384 6.56173 23.6046 6.93094 24.0564 6.93094C25.4118 6.93094 26.5106 8.03856 26.5106 9.40489V11.8789M27.3288 36.6188L12.6038 36.6188C9.89297 36.6188 7.57717 34.3309 8.44808 31.7431C12.0886 20.9259 27.844 20.9258 31.4845 31.7431C32.3554 34.3309 30.0396 36.6188 27.3288 36.6188Z" stroke="url(#paint0_linear_63_1959)" stroke-width="1.5"/>
</g>
</g>
<defs>
<linearGradient id="paint0_linear_63_1959" x1="13.0685" y1="10.4093" x2="31.4149" y2="23.4293" gradientUnits="userSpaceOnUse">
<stop stop-color="#787D85"/>
<stop offset="1" stop-color="#555B64"/>
</linearGradient>
</defs>
</svg>
