<svg width="266" height="68" viewBox="0 0 266 68" fill="none" xmlns="http://www.w3.org/2000/svg">
<path d="M227.532 68H215.824V28.1379V18.7586H209.568L207.695 16.4138H211.91V14.069H205.705L203.715 11.7241H209.568V9.37931H201.73L199.734 7.03448H206.056V4.68966H197.861L194.348 0H224.187L250.947 45.9V18.7586L242.584 0H257.57L265.766 18.7586L266 68H254.292H250.947L229.204 30.6V68H227.532Z" fill="#FCB140"/>
<path fill-rule="evenodd" clip-rule="evenodd" d="M170.933 30.4829H213.081V52.9933H184.344V58.6208H209.249V68.0002H170.933V30.4829ZM184.344 39.8622H199.67V45.4898H184.344V39.8622Z" fill="white"/>
<path fill-rule="evenodd" clip-rule="evenodd" d="M69.4319 30.4829H110.053V68.0002H65.5632V43.6139H94.5781V39.8622H69.4319V30.4829ZM79.1035 52.9933H94.5781V58.6208H79.1035V52.9933Z" fill="white"/>
<path d="M126.444 68.0002H117.077V30.4829H163.908V68.0002H154.542V39.8622H145.176V68.0002H135.81V39.8622H126.444V68.0002Z" fill="white"/>
<path d="M53.3873 19.2275L70.2464 2.34473H16.8591L0 19.2275V51.1171L16.8591 67.9999H62.8987V32.987H33.9993V39.7964H52.4507V51.1171H21.5422L16.8591 46.4275V23.9171L21.5422 19.2275H53.3873Z" fill="#FCB140"/>
</svg>
