<svg width="16" height="16" viewBox="0 0 16 16" fill="none" xmlns="http://www.w3.org/2000/svg">
<g clip-path="url(#clip0_27_81)">
<path d="M4 12.5V12.5C4 13.8807 5.11929 15 6.5 15H12C13.6569 15 15 13.6569 15 12V6.5C15 4.84315 13.6569 3.5 12 3.5V3.5M4 12.5V12.5C2.34315 12.5 1 11.1569 1 9.5V4C1 2.34315 2.34315 1 4 1H9.5C10.8807 1 12 2.11929 12 3.5V3.5M4 12.5H9C10.6569 12.5 12 11.1569 12 9.5V3.5" stroke="#D86163"/>
<path d="M4.51265 7.61518L5.73178 9.07813C6.13157 9.55789 6.86843 9.55789 7.26822 9.07814L8.48735 7.61518C8.787 7.2556 8.79714 6.73628 8.51175 6.36528L7.29262 4.78041C6.89233 4.26003 6.10767 4.26003 5.70738 4.78041L4.48824 6.36528C4.20286 6.73628 4.213 7.2556 4.51265 7.61518Z" stroke="#D86163"/>
</g>
<defs>
<clipPath id="clip0_27_81">
<rect width="16" height="16" fill="white"/>
</clipPath>
</defs>
</svg>
