<svg width="16" height="16" viewBox="0 0 16 16" fill="none" xmlns="http://www.w3.org/2000/svg">
<g clip-path="url(#clip0_27_71)">
<path d="M15 8C15 11.866 11.866 15 8 15C4.13401 15 1 11.866 1 8C1 4.13401 4.13401 1 8 1C11.866 1 15 4.13401 15 8Z" stroke="#849CF1"/>
<path d="M5.96626 7.04197L8.23084 4.21125C8.45564 3.93025 8.89436 4.21095 8.73342 4.53282L8.05678 5.88612C7.72433 6.55102 8.20782 7.33333 8.9512 7.33333H9.25255C10.0911 7.33333 10.5572 8.30326 10.0334 8.95803L7.76884 11.7887C7.54403 12.0698 7.10531 11.789 7.26625 11.4672L7.9429 10.1139C8.27535 9.44898 7.79185 8.66667 7.04847 8.66667H6.74713C5.90862 8.66667 5.44245 7.69674 5.96626 7.04197Z" fill="#849CF1"/>
</g>
<defs>
<clipPath id="clip0_27_71">
<rect width="16" height="16" fill="white"/>
</clipPath>
</defs>
</svg>
