<svg width="24" height="24" viewBox="0 0 24 24" fill="none" xmlns="http://www.w3.org/2000/svg">
<g clip-path="url(#clip0_31_5336)">
<path d="M3.16209 6.69644L3.51426 3.51308L6.69763 3.16091L11.9999 8.4632L17.3026 3.16053L20.4859 3.51271L20.8381 6.69607L15.5355 11.9987L18.7184 15.1817L18.01 15.8874L20.8388 18.7163C21.2292 19.1067 21.2294 19.7395 20.8393 20.1301L20.1327 20.8377C19.7422 21.2286 19.1087 21.2288 18.718 20.8381L15.89 18.0101L15.1829 18.7173L11.9999 15.5343L8.8173 18.7169L8.11158 18.0084L5.28269 20.8373C4.89234 21.2276 4.25953 21.2278 3.86894 20.8377L3.16137 20.1311C2.77041 19.7406 2.7702 19.1071 3.16091 18.7164L5.98887 15.8885L5.28177 15.1813L8.46438 11.9987L3.16209 6.69644Z" fill="#444548"/>
<path d="M3.51426 3.51308L3.4318 2.76763C3.08288 2.80623 2.80741 3.08169 2.76881 3.43061L3.51426 3.51308ZM3.16209 6.69644L2.41664 6.61397C2.3916 6.8403 2.47075 7.06575 2.63176 7.22677L3.16209 6.69644ZM15.1829 18.7173L15.7125 19.2483L15.7132 19.2476L15.1829 18.7173ZM13.5912 19.2455C13.298 19.538 13.2973 20.0129 13.5898 20.3062C13.8824 20.5994 14.3572 20.6001 14.6505 20.3076L13.5912 19.2455ZM6.69763 3.16091L7.22796 2.63058C7.06694 2.46956 6.84149 2.39042 6.61516 2.41545L6.69763 3.16091ZM18.7184 15.1817L19.2477 15.7131L19.2495 15.7114L18.7184 15.1817ZM20.3087 14.6493C20.6013 14.356 20.6006 13.8812 20.3074 13.5887C20.0141 13.2961 19.5392 13.2968 19.2467 13.59L20.3087 14.6493ZM20.1327 20.8377L19.602 20.3077L19.602 20.3077L20.1327 20.8377ZM20.8393 20.1301L20.3086 19.6001L20.8393 20.1301ZM18.01 15.8874L17.4807 15.3561L17.4793 15.3575L18.01 15.8874ZM20.4859 3.51271L21.2314 3.43024C21.1928 3.08132 20.9173 2.80586 20.5684 2.76725L20.4859 3.51271ZM17.3026 3.16053L17.3851 2.41508C17.1587 2.39004 16.9333 2.46919 16.7723 2.6302L17.3026 3.16053ZM5.28177 15.1813L4.75075 15.711L4.75144 15.7117L5.28177 15.1813ZM4.75351 13.5897C4.461 13.2964 3.98612 13.2958 3.69285 13.5883C3.39957 13.8808 3.39896 14.3557 3.69147 14.6489L4.75351 13.5897ZM20.8381 6.69607L21.3684 7.2264C21.5295 7.06538 21.6086 6.83993 21.5836 6.6136L20.8381 6.69607ZM8.8173 18.7169L8.28593 19.2462L8.28766 19.2479L8.8173 18.7169ZM9.3497 20.3072C9.64298 20.5997 10.1179 20.5991 10.4104 20.3058C10.7029 20.0125 10.7023 19.5377 10.409 19.2451L9.3497 20.3072ZM3.16137 20.1311L3.69135 19.6004L3.69135 19.6004L3.16137 20.1311ZM3.86894 20.8377L4.39892 20.3071L3.86894 20.8377ZM8.11158 18.0084L8.64294 17.4791L8.64156 17.4777L8.11158 18.0084ZM2.76881 3.43061L2.41664 6.61397L3.90754 6.77891L4.25972 3.59555L2.76881 3.43061ZM14.6533 18.1862L13.5912 19.2455L14.6505 20.3076L15.7125 19.2483L14.6533 18.1862ZM3.59673 4.25853L6.78009 3.90636L6.61516 2.41545L3.4318 2.76763L3.59673 4.25853ZM19.2495 15.7114L20.3087 14.6493L19.2467 13.59L18.1874 14.6521L19.2495 15.7114ZM15.7132 19.2476L16.4203 18.5405L15.3597 17.4798L14.6526 18.1869L15.7132 19.2476ZM15.3597 18.5405L18.1876 21.3684L19.2483 20.3078L16.4203 17.4798L15.3597 18.5405ZM20.6633 21.3676L21.37 20.6601L20.3086 19.6001L19.602 20.3077L20.6633 21.3676ZM16.4207 18.5401L18.5406 16.4174L17.4793 15.3575L15.3593 17.4802L16.4207 18.5401ZM18.5392 16.4188L19.2477 15.7131L18.1891 14.6504L17.4807 15.3561L18.5392 16.4188ZM21.3692 18.186L18.5403 15.3571L17.4796 16.4178L20.3085 19.2467L21.3692 18.186ZM20.5684 2.76725L17.3851 2.41508L17.2201 3.90599L20.4035 4.25816L20.5684 2.76725ZM5.81279 14.6517L4.75351 13.5897L3.69147 14.6489L4.75075 15.711L5.81279 14.6517ZM19.7405 3.59517L20.0927 6.77854L21.5836 6.6136L21.2314 3.43024L19.7405 3.59517ZM8.28766 19.2479L9.3497 20.3072L10.409 19.2451L9.34694 18.1859L8.28766 19.2479ZM4.75144 15.7117L5.45854 16.4188L6.5192 15.3581L5.8121 14.651L4.75144 15.7117ZM5.45854 15.3581L2.63058 18.1861L3.69124 19.2468L6.5192 16.4188L5.45854 15.3581ZM2.63138 20.6618L3.33895 21.3684L4.39892 20.3071L3.69135 19.6004L2.63138 20.6618ZM5.45889 16.4191L7.58159 18.5391L8.64156 17.4777L6.51886 15.3578L5.45889 16.4191ZM7.58021 18.5377L8.28594 19.2462L9.34867 18.1876L8.64294 17.4791L7.58021 18.5377ZM5.81302 21.3676L8.64191 18.5387L7.58125 17.4781L4.75236 20.307L5.81302 21.3676ZM3.33895 21.3684C4.0225 22.0511 5.12992 22.0507 5.81302 21.3676L4.75236 20.307C4.65477 20.4045 4.49657 20.4046 4.39892 20.3071L3.33895 21.3684ZM2.63058 18.1861C1.94685 18.8698 1.94721 19.9785 2.63139 20.6618L3.69135 19.6004C3.59361 19.5028 3.59356 19.3444 3.69124 19.2468L2.63058 18.1861ZM16.7723 2.6302L11.4696 7.93287L12.5302 8.99353L17.8329 3.69086L16.7723 2.6302ZM6.1673 3.69124L11.4696 8.99353L12.5302 7.93287L7.22796 2.63058L6.1673 3.69124ZM15.0051 12.5291L18.1881 15.7121L19.2488 14.6514L16.0658 11.4684L15.0051 12.5291ZM20.3078 6.16574L15.0051 11.4684L16.0658 12.5291L21.3684 7.2264L20.3078 6.16574ZM11.4696 7.93287L7.93405 11.4684L8.99471 12.5291L12.5302 8.99353L11.4696 7.93287ZM7.93405 11.4684L4.75144 14.651L5.8121 15.7117L8.99471 12.5291L7.93405 11.4684ZM2.63176 7.22677L7.93405 12.5291L8.99471 11.4684L3.69242 6.16611L2.63176 7.22677ZM11.4696 16.0646L14.6526 19.2476L15.7132 18.1869L12.5302 15.0039L11.4696 16.0646ZM15.0051 11.4684L11.4696 15.0039L12.5302 16.0646L16.0658 12.5291L15.0051 11.4684ZM11.4696 15.0039L8.28697 18.1866L9.34763 19.2472L12.5302 16.0646L11.4696 15.0039ZM21.37 20.6601C22.0526 19.9765 22.0523 18.8691 21.3692 18.186L20.3085 19.2467C20.4061 19.3443 20.4061 19.5025 20.3086 19.6001L21.37 20.6601ZM18.1876 21.3684C18.8714 22.0522 19.98 22.0518 20.6633 21.3676L19.602 20.3077C19.5044 20.4054 19.346 20.4055 19.2483 20.3078L18.1876 21.3684Z" fill="url(#paint0_linear_31_5336)"/>
</g>
<defs>
<linearGradient id="paint0_linear_31_5336" x1="2.57192" y1="21.4274" x2="21.4291" y2="2.57016" gradientUnits="userSpaceOnUse">
<stop stop-color="white"/>
<stop offset="1" stop-color="#D0D0D0"/>
</linearGradient>
<clipPath id="clip0_31_5336">
<rect width="24" height="24" fill="white"/>
</clipPath>
</defs>
</svg>
