<svg width="24" height="24" viewBox="0 0 24 24" fill="none" xmlns="http://www.w3.org/2000/svg">
<path d="M20 9.4502C20 11.3721 19.3223 13.1357 18.1928 14.515C16.9103 16.0814 15.0452 17.1522 12.9285 17.3969C12.6239 17.4321 12.314 17.4502 12 17.4502C11.6861 17.4502 11.3764 17.4321 11.072 17.3969C8.9552 17.1524 7.09008 16.0816 5.80745 14.5154C4.67782 13.136 4 11.3722 4 9.4502C4 5.03192 7.58172 1.4502 12 1.4502C16.4183 1.4502 20 5.03192 20 9.4502Z" fill="#2A2C30"/>
<path d="M11.8211 4.8634C11.8944 4.71475 12.1064 4.71475 12.1797 4.8634L13.4233 7.38317C13.4525 7.4422 13.5088 7.48311 13.5739 7.49258L16.3546 7.89664C16.5187 7.92048 16.5842 8.12207 16.4655 8.23778L14.4533 10.1992C14.4062 10.2451 14.3847 10.3113 14.3958 10.3762L14.8708 13.1457C14.8988 13.3091 14.7274 13.4336 14.5806 13.3565L12.0935 12.0489C12.0352 12.0183 11.9656 12.0183 11.9073 12.0489L9.42017 13.3565C9.27344 13.4336 9.10196 13.3091 9.12998 13.1457L9.60498 10.3762C9.61611 10.3113 9.5946 10.2451 9.54747 10.1992L7.53531 8.23778C7.4166 8.12207 7.48211 7.92048 7.64615 7.89664L10.4269 7.49258C10.492 7.48311 10.5483 7.4422 10.5775 7.38317L11.8211 4.8634Z" fill="#2A2C30"/>
<path d="M5.67338 20.1144L3.17372 19.6028C3.03998 19.5755 2.97236 19.4251 3.04062 19.3069L5.80745 14.5154C7.09008 16.0816 8.9552 17.1524 11.072 17.3969L8.23677 22.3069C8.16851 22.4251 8.00449 22.4417 7.91392 22.3396L6.22111 20.4306C6.07755 20.2687 5.88536 20.1577 5.67338 20.1144Z" fill="#2A2C30"/>
<path d="M18.3267 20.1144L20.8263 19.6028C20.9601 19.5755 21.0277 19.4251 20.9594 19.3069L18.1928 14.515C16.9103 16.0814 15.0452 17.1522 12.9285 17.3969L15.7633 22.3069C15.8315 22.4251 15.9955 22.4417 16.0861 22.3396L17.7789 20.4306C17.9225 20.2687 18.1147 20.1577 18.3267 20.1144Z" fill="#2A2C30"/>
<path d="M18.1928 14.515C19.3223 13.1357 20 11.3721 20 9.4502C20 5.03192 16.4183 1.4502 12 1.4502C7.58172 1.4502 4 5.03192 4 9.4502C4 11.3722 4.67782 13.136 5.80745 14.5154M18.1928 14.515C16.9103 16.0814 15.0452 17.1522 12.9285 17.3969M18.1928 14.515L20.9594 19.3069C21.0277 19.4251 20.9601 19.5755 20.8263 19.6028L18.3267 20.1144C18.1147 20.1577 17.9225 20.2687 17.7789 20.4306L16.0861 22.3396C15.9955 22.4417 15.8315 22.4251 15.7633 22.3069L12.9285 17.3969M12.9285 17.3969C12.6239 17.4321 12.314 17.4502 12 17.4502C11.6861 17.4502 11.3764 17.4321 11.072 17.3969M11.072 17.3969C8.9552 17.1524 7.09008 16.0816 5.80745 14.5154M11.072 17.3969L8.23677 22.3069C8.16851 22.4251 8.00449 22.4417 7.91392 22.3396L6.22111 20.4306C6.07755 20.2687 5.88536 20.1577 5.67338 20.1144L3.17372 19.6028C3.03998 19.5755 2.97236 19.4251 3.04062 19.3069L5.80745 14.5154M10.4269 7.49258L7.64615 7.89664C7.48211 7.92048 7.4166 8.12207 7.53531 8.23778L9.54747 10.1992C9.5946 10.2451 9.61611 10.3113 9.60498 10.3762L9.12998 13.1457C9.10196 13.3091 9.27344 13.4336 9.42017 13.3565L11.9073 12.0489C11.9656 12.0183 12.0352 12.0183 12.0935 12.0489L14.5806 13.3565C14.7274 13.4336 14.8988 13.3091 14.8708 13.1457L14.3958 10.3762C14.3847 10.3113 14.4062 10.2451 14.4533 10.1992L16.4655 8.23778C16.5842 8.12207 16.5187 7.92048 16.3546 7.89664L13.5739 7.49258C13.5088 7.48311 13.4525 7.4422 13.4233 7.38317L12.1797 4.8634C12.1064 4.71475 11.8944 4.71475 11.8211 4.8634L10.5775 7.38317C10.5483 7.4422 10.492 7.48311 10.4269 7.49258Z" stroke="url(#paint0_linear_32_576)" stroke-width="1.5"/>
<defs>
<linearGradient id="paint0_linear_32_576" x1="6.70412" y1="5.75567" x2="18.9078" y2="16.2219" gradientUnits="userSpaceOnUse">
<stop stop-color="#787D85"/>
<stop offset="1" stop-color="#555B64"/>
</linearGradient>
</defs>
</svg>
