<svg width="24" height="24" viewBox="0 0 24 24" fill="none" xmlns="http://www.w3.org/2000/svg">
<path d="M20 10.95V20C20 21.1046 19.1046 22 18 22H6C4.89543 22 4 21.1046 4 20V10.95C2.85888 10.7184 2 9.70948 2 8.5C2 7.529 2.33047 6.58692 2.93704 5.8287L4.79902 3.50122C5.55811 2.55236 6.70736 2 7.9225 2H16.0775C17.2926 2 18.4419 2.55236 19.201 3.50122L21.063 5.8287C21.6695 6.58692 22 7.529 22 8.5C22 9.70948 21.1411 10.7184 20 10.95Z" fill="#2A2C30"/>
<path d="M20 10.95L19.8508 10.215H19.8508L20 10.95ZM4 10.95L4.1492 10.215H4.1492L4 10.95ZM2.93704 5.8287L3.52269 6.29722H3.52269L2.93704 5.8287ZM4.79902 3.50122L4.21337 3.0327L4.79902 3.50122ZM19.201 3.50122L18.6153 3.96974V3.96974L19.201 3.50122ZM21.063 5.8287L21.6486 5.36017L21.063 5.8287ZM17.75 8.5C17.75 8.08579 17.4142 7.75 17 7.75C16.5858 7.75 16.25 8.08579 16.25 8.5H17.75ZM12.75 8.5C12.75 8.08579 12.4142 7.75 12 7.75C11.5858 7.75 11.25 8.08579 11.25 8.5H12.75ZM7.75 8.5C7.75 8.08579 7.41421 7.75 7 7.75C6.58579 7.75 6.25 8.08579 6.25 8.5H7.75ZM20.75 20V10.95H19.25V20H20.75ZM4.75 20V10.95H3.25V20H4.75ZM3.52269 6.29722L5.38468 3.96974L4.21337 3.0327L2.35139 5.36018L3.52269 6.29722ZM7.9225 2.75H16.0775V1.25H7.9225V2.75ZM18.6153 3.96974L20.4773 6.29722L21.6486 5.36017L19.7866 3.0327L18.6153 3.96974ZM6 22.75H18V21.25H6V22.75ZM16.25 8.5C16.25 9.4665 15.4665 10.25 14.5 10.25V11.75C16.2949 11.75 17.75 10.2949 17.75 8.5H16.25ZM14.5 10.25C13.5335 10.25 12.75 9.4665 12.75 8.5H11.25C11.25 10.2949 12.7051 11.75 14.5 11.75V10.25ZM19.5 10.25C18.5335 10.25 17.75 9.4665 17.75 8.5H16.25C16.25 10.2949 17.7051 11.75 19.5 11.75V10.25ZM11.25 8.5C11.25 9.4665 10.4665 10.25 9.5 10.25V11.75C11.2949 11.75 12.75 10.2949 12.75 8.5H11.25ZM9.5 10.25C8.5335 10.25 7.75 9.4665 7.75 8.5H6.25C6.25 10.2949 7.70507 11.75 9.5 11.75V10.25ZM6.25 8.5C6.25 9.4665 5.4665 10.25 4.5 10.25V11.75C6.29493 11.75 7.75 10.2949 7.75 8.5H6.25ZM21.25 8.5C21.25 9.34576 20.6493 10.0529 19.8508 10.215L20.1492 11.685C21.633 11.3838 22.75 10.0732 22.75 8.5H21.25ZM19.8508 10.215C19.7381 10.2379 19.6208 10.25 19.5 10.25V11.75C19.7216 11.75 19.9388 11.7277 20.1492 11.685L19.8508 10.215ZM4.5 10.25C4.37916 10.25 4.26192 10.2379 4.1492 10.215L3.8508 11.685C4.06119 11.7277 4.27838 11.75 4.5 11.75V10.25ZM4.1492 10.215C3.35073 10.0529 2.75 9.34576 2.75 8.5H1.25C1.25 10.0732 2.36703 11.3838 3.8508 11.685L4.1492 10.215ZM20.4773 6.29722C20.9775 6.92245 21.25 7.69931 21.25 8.5H22.75C22.75 7.3587 22.3616 6.25138 21.6486 5.36017L20.4773 6.29722ZM2.35139 5.36018C1.63843 6.25138 1.25 7.3587 1.25 8.5H2.75C2.75 7.69931 3.02251 6.92245 3.52269 6.29722L2.35139 5.36018ZM16.0775 2.75C17.0648 2.75 17.9986 3.19879 18.6153 3.96974L19.7866 3.0327C18.8852 1.90593 17.5205 1.25 16.0775 1.25V2.75ZM19.25 20C19.25 20.6904 18.6904 21.25 18 21.25V22.75C19.5188 22.75 20.75 21.5188 20.75 20H19.25ZM5.38468 3.96974C6.00143 3.19879 6.9352 2.75 7.9225 2.75V1.25C6.47953 1.25 5.11479 1.90593 4.21337 3.0327L5.38468 3.96974ZM3.25 20C3.25 21.5188 4.48122 22.75 6 22.75V21.25C5.30964 21.25 4.75 20.6904 4.75 20H3.25Z" fill="url(#paint0_linear_32_1165)"/>
<defs>
<linearGradient id="paint0_linear_32_1165" x1="6.10673" y1="6.10892" x2="17.8909" y2="17.8934" gradientUnits="userSpaceOnUse">
<stop stop-color="#787D85"/>
<stop offset="1" stop-color="#555B64"/>
</linearGradient>
</defs>
</svg>
