<svg width="24" height="24" viewBox="0 0 24 24" fill="none" xmlns="http://www.w3.org/2000/svg">
<path d="M6.25722 3.70289L2.6857 2.27428C2.35726 2.14291 2 2.38478 2 2.73852V18.6459C2 19.4637 2.4979 20.1992 3.25722 20.5029L6.25722 21.7029C6.73404 21.8936 7.26596 21.8936 7.74278 21.7029L11.2572 20.2971C11.734 20.1064 12.266 20.1064 12.7428 20.2971L16.2572 21.7029C16.734 21.8936 17.266 21.8936 17.7428 21.7029L20.7428 20.5029C21.5021 20.1992 22 19.4637 22 18.6459V2.73852C22 2.38478 21.6427 2.14291 21.3143 2.27428L17.7428 3.70289C17.266 3.89362 16.734 3.89362 16.2572 3.70289L12.7428 2.29711C12.266 2.10638 11.734 2.10638 11.2572 2.29711L7.74278 3.70289C7.26596 3.89362 6.73404 3.89362 6.25722 3.70289Z" fill="#2A2C30" stroke="url(#paint0_linear_31_5458)" stroke-width="1.5"/>
<path fill-rule="evenodd" clip-rule="evenodd" d="M10.309 7.97602L11.1344 13.259C11.2011 13.6855 11.5685 14 12.0002 14C12.432 14 12.7994 13.6855 12.866 13.259L13.6915 7.97602C13.8537 6.93788 13.051 6 12.0002 6C10.9495 6 10.1468 6.93788 10.309 7.97602ZM12.0002 17.5C12.5525 17.5 13.0002 17.0523 13.0002 16.5C13.0002 15.9477 12.5525 15.5 12.0002 15.5C11.4479 15.5 11.0002 15.9477 11.0002 16.5C11.0002 17.0523 11.4479 17.5 12.0002 17.5Z" fill="url(#paint1_linear_31_5458)"/>
<defs>
<linearGradient id="paint0_linear_31_5458" x1="6.10673" y1="6.10892" x2="17.8909" y2="17.8934" gradientUnits="userSpaceOnUse">
<stop stop-color="#787D85"/>
<stop offset="1" stop-color="#555B64"/>
</linearGradient>
<linearGradient id="paint1_linear_31_5458" x1="10.9912" y1="8.36263" x2="14.6979" y2="9.46637" gradientUnits="userSpaceOnUse">
<stop stop-color="#787D85"/>
<stop offset="1" stop-color="#555B64"/>
</linearGradient>
</defs>
</svg>
